<?xml version="1.0" standalone="no"?>
<!DOCTYPE svg PUBLIC "-//W3C//DTD SVG 20010904//EN"
 "http://www.w3.org/TR/2001/REC-SVG-20010904/DTD/svg10.dtd">
<svg version="1.0" xmlns="http://www.w3.org/2000/svg"
 width="1024.000000pt" height="1024.000000pt" viewBox="0 0 1024.000000 1024.000000"
 preserveAspectRatio="xMidYMid meet">
<metadata>
Created by potrace 1.16, written by Peter Selinger 2001-2019
</metadata>
<g transform="translate(0.000000,1024.000000) scale(0.100000,-0.100000)"
fill="#000000" stroke="none">
<path d="M0 5120 l0 -5120 5120 0 5120 0 0 5120 0 5120 -5120 0 -5120 0 0
-5120z m2719 3631 c77 -54 335 -217 701 -441 74 -46 173 -108 220 -140 108
-72 480 -293 587 -349 81 -42 83 -44 98 -95 27 -88 28 -153 7 -276 -12 -64
-26 -129 -32 -145 -15 -39 -29 -135 -19 -135 4 0 32 23 63 51 35 32 82 93 126
165 39 62 75 116 80 119 5 3 26 35 46 70 19 36 39 67 42 69 4 2 50 -3 102 -10
52 -7 153 -18 225 -24 170 -14 188 -17 180 -38 -36 -89 -36 -89 -29 -1978 l7
-1831 -24 -6 c-13 -4 -69 -7 -125 -7 l-101 0 -6 583 c-8 817 -24 931 -164
1157 -95 152 -239 312 -348 384 -149 100 -350 167 -535 180 -215 15 -469 -45
-750 -177 -41 -19 -95 -43 -120 -54 -25 -11 -92 -46 -150 -78 -58 -31 -186
-99 -285 -149 -99 -51 -218 -115 -265 -142 -130 -78 -345 -194 -359 -194 -6 0
-33 -11 -59 -24 -48 -24 -173 -66 -198 -66 -8 0 14 24 48 53 35 29 118 99 185
156 120 101 413 398 548 556 38 44 105 118 150 165 44 47 90 100 100 118 21
36 35 41 35 14 0 -10 18 -55 40 -101 22 -45 40 -89 40 -97 0 -16 -58 -103
-112 -169 l-33 -39 35 21 c19 12 85 48 147 82 210 112 546 361 717 529 195
191 302 366 340 553 4 18 12 26 23 25 10 0 18 6 18 14 0 11 13 15 53 15 32 0
52 4 52 11 0 7 7 15 16 18 12 5 14 1 8 -16 -6 -21 -6 -21 10 -5 10 9 15 21 12
26 -4 5 0 11 6 13 9 3 14 39 16 122 4 110 2 119 -23 169 -60 116 -270 286
-555 447 -52 30 -135 80 -185 112 -77 50 -204 128 -322 200 l-33 20 -1 -34 c0
-18 -2 -316 -4 -662 -2 -513 -6 -630 -17 -638 -18 -13 -247 -3 -280 12 -14 7
-29 22 -32 34 -3 11 -6 448 -6 969 0 756 3 947 13 941 6 -4 41 -28 76 -53z
m3731 -3110 c0 -5 -12 -38 -27 -73 -88 -206 -211 -302 -427 -334 -59 -9 -110
-13 -113 -11 -12 13 97 177 157 238 74 74 98 87 265 145 132 45 145 48 145 35z
m-2531 -27 c137 -42 222 -88 293 -160 60 -60 167 -219 155 -230 -8 -8 -206 23
-256 41 -91 32 -206 126 -243 199 -24 46 -58 143 -58 163 0 18 12 17 109 -13z
m-571 -191 c126 -102 126 -102 341 -232 227 -138 323 -211 481 -370 265 -266
398 -501 518 -916 34 -115 68 -253 77 -305 10 -60 26 -111 41 -138 38 -64 121
-141 212 -196 l82 -48 57 21 c89 33 177 99 247 183 57 68 64 82 71 134 9 80
36 192 84 359 102 350 204 555 381 765 111 131 225 243 340 334 129 101 155
119 350 236 154 92 313 205 359 254 l24 25 66 -61 c104 -95 261 -201 409 -277
160 -80 252 -113 380 -137 51 -9 90 -20 85 -24 -4 -4 -35 -15 -68 -25 -33 -9
-90 -36 -127 -61 -37 -24 -102 -60 -143 -79 -42 -19 -95 -48 -118 -64 -65 -44
-135 -77 -217 -101 -92 -27 -168 -56 -325 -125 -184 -81 -211 -95 -354 -175
-240 -136 -446 -309 -639 -539 -110 -131 -164 -205 -294 -406 -155 -237 -277
-343 -472 -409 -64 -21 -74 -22 -120 -10 -76 20 -229 101 -300 160 -74 61
-130 131 -217 270 -219 353 -514 664 -814 860 -233 152 -664 341 -941 413 -23
6 -57 25 -75 41 -19 17 -77 53 -129 80 -52 27 -118 67 -147 88 -36 28 -73 45
-123 57 -39 10 -68 21 -63 24 4 4 36 13 70 19 234 46 522 196 853 445 34 26
47 31 53 21 4 -7 51 -48 105 -91z m-1519 -523 c64 -33 155 -73 202 -89 74 -25
324 -142 534 -248 75 -38 248 -138 409 -237 195 -119 349 -291 652 -728 200
-288 278 -417 268 -442 -3 -9 -10 -16 -16 -16 -5 0 -7 -4 -3 -9 3 -5 -8 -18
-25 -27 -16 -10 -30 -25 -30 -32 0 -8 -15 -29 -34 -48 -19 -19 -36 -39 -38
-46 -3 -7 -10 -5 -20 6 -24 23 -35 20 -13 -4 10 -11 13 -20 7 -20 -10 0 -103
111 -177 211 -117 158 -263 336 -474 578 -251 287 -366 398 -652 627 -75 60
-172 141 -216 179 -80 71 -273 225 -348 279 -54 40 -157 126 -150 126 3 0 59
-27 124 -60z m1981 -1035 c12 -19 26 -33 31 -29 5 3 7 10 4 15 -37 58 242
-220 395 -396 28 -33 96 -119 151 -191 123 -162 297 -346 448 -472 63 -53 148
-127 188 -164 40 -38 78 -68 85 -68 10 0 13 -44 12 -195 -1 -107 -5 -199 -9
-203 -4 -4 -5 7 -1 23 4 19 3 25 -2 16 -11 -15 -36 11 -157 154 -37 44 -80 94
-95 110 -71 75 -198 233 -366 455 -201 265 -249 328 -364 485 -56 77 -112 147
-123 155 -21 15 -157 217 -157 233 0 4 6 5 13 1 8 -5 8 -2 -2 9 -16 20 -25 22
-16 5 11 -22 -32 34 -49 64 -25 41 -12 34 14 -7z m1504 -281 c40 -15 3 -57
-93 -104 -77 -38 -132 -38 -208 2 -47 24 -98 82 -87 99 6 10 363 12 388 3z"/>
<path d="M3971 6434 c170 -115 279 -210 453 -393 92 -96 213 -233 259 -293 16
-20 18 -20 12 -3 -4 11 -13 44 -20 73 -21 78 -95 228 -148 298 -99 131 -214
218 -352 266 -33 11 -101 36 -152 54 -51 19 -95 34 -99 34 -3 0 18 -16 47 -36z"/>
</g>
</svg>
